<?xml version="1.0" standalone="no"?>
<!DOCTYPE svg PUBLIC "-//W3C//DTD SVG 20010904//EN"
 "http://www.w3.org/TR/2001/REC-SVG-20010904/DTD/svg10.dtd">
<svg version="1.0" xmlns="http://www.w3.org/2000/svg"
 width="581.000000pt" height="268.000000pt" viewBox="0 0 581.000000 268.000000"
 preserveAspectRatio="xMidYMid meet">

<g transform="translate(0.000000,268.000000) scale(0.100000,-0.100000)"
fill="#000000" stroke="none">
<path d="M0 1340 l0 -1340 2905 0 2905 0 0 1340 0 1340 -2905 0 -2905 0 0
-1340z m3098 1235 c136 -18 162 -24 162 -39 -1 -18 -47 -206 -52 -212 -3 -2
-34 2 -69 10 -152 36 -415 45 -468 17 -24 -13 -36 -50 -27 -87 9 -33 46 -48
176 -69 355 -56 437 -87 476 -182 8 -19 17 -69 21 -111 21 -277 -125 -373
-547 -359 -152 5 -380 34 -396 50 -4 4 45 217 52 225 1 2 58 -6 126 -19 93
-17 163 -22 286 -23 160 -1 164 -1 183 23 19 24 24 56 13 86 -12 29 -62 45
-225 70 -385 60 -439 99 -439 324 1 174 57 248 222 291 92 24 343 27 506 5z
m-841 -12 c10 -26 -22 -167 -55 -237 -33 -70 -94 -136 -126 -136 -12 0 -129
46 -260 103 -229 98 -240 104 -259 140 -18 34 -18 41 -5 75 25 68 39 71 390
72 283 0 309 -1 315 -17z m2008 -2 c127 -38 170 -101 169 -248 -1 -105 -29
-166 -93 -202 l-43 -23 39 -18 c47 -21 97 -76 113 -125 8 -23 11 -72 8 -129
-5 -109 -28 -163 -89 -203 -78 -52 -112 -56 -531 -60 l-388 -5 0 517 0 516
388 -4 c262 -2 400 -7 427 -16z m-2903 -245 c31 -26 92 -53 554 -247 207 -87
251 -116 283 -182 28 -57 29 -153 2 -205 -25 -48 -77 -97 -123 -116 -54 -23
-196 -21 -292 4 -243 62 -441 266 -491 505 -17 83 -19 234 -4 290 l11 39 13
-31 c7 -17 28 -43 47 -57z m-1055 -1130 c3 -3 3 -15 0 -28 -6 -22 -10 -23 -73
-20 -39 2 -71 -1 -77 -7 -18 -18 4 -30 72 -42 36 -7 72 -20 82 -30 24 -24 24
-70 0 -100 -18 -22 -28 -24 -121 -27 l-102 -4 4 29 3 28 80 0 c73 0 80 2 80
20 0 17 -11 22 -70 32 -50 9 -75 19 -88 35 -32 38 -4 110 47 122 25 5 156 -1
163 -8z m1148 4 c3 -6 3 -19 0 -30 -6 -18 -15 -20 -91 -20 -83 0 -84 0 -84
-25 0 -25 1 -25 81 -25 70 0 80 -2 75 -16 -3 -9 -6 -20 -6 -25 0 -5 -34 -9
-75 -9 l-75 0 0 -30 0 -30 91 0 c79 0 90 -2 85 -16 -3 -9 -6 -20 -6 -25 0 -6
-48 -8 -117 -7 l-118 3 -3 119 c-1 66 0 126 2 133 7 16 231 19 241 3z m1733
-17 c-3 -28 -3 -28 -90 -31 -86 -3 -88 -3 -88 -27 0 -24 2 -25 80 -25 57 0 80
-4 80 -12 -1 -29 -18 -37 -85 -40 -67 -3 -70 -4 -70 -28 0 -25 2 -25 88 -28
86 -3 93 -6 81 -36 -5 -13 -25 -16 -120 -16 l-114 0 0 135 0 135 121 0 120 0
-3 -27z m1174 22 c3 -3 3 -17 0 -30 -4 -24 -7 -25 -88 -25 -83 0 -84 0 -84
-25 0 -24 2 -25 75 -25 73 0 75 -1 75 -25 0 -24 -2 -25 -75 -25 l-75 0 0 -30
0 -29 89 -3 c87 -3 88 -3 80 -25 -8 -22 -13 -23 -124 -23 l-115 0 0 128 c0 71
3 132 7 135 7 8 227 9 235 2z m745 -1 c25 -5 29 -10 25 -30 -4 -23 -8 -24 -76
-24 -43 0 -77 -5 -84 -12 -7 -7 -12 -36 -12 -64 0 -73 14 -84 101 -84 67 0 70
-1 67 -22 -3 -22 -7 -23 -96 -23 -122 0 -132 10 -132 129 0 73 3 85 23 103 12
11 29 23 37 26 21 8 111 8 147 1z m223 -130 l0 -135 -32 3 -33 3 -3 119 c-1
66 0 126 2 133 3 7 19 13 36 13 l30 0 0 -136z m354 14 c32 -68 60 -129 63
-135 9 -23 -65 -16 -77 7 -9 17 -21 20 -74 20 -55 0 -64 -3 -69 -20 -4 -15
-14 -20 -42 -20 -26 0 -36 4 -32 13 2 6 31 67 62 135 53 112 60 122 85 122 25
0 32 -10 84 -122z m-5172 15 l3 -98 60 0 60 0 3 98 3 97 35 0 36 0 -4 -105
c-3 -93 -6 -107 -26 -127 -20 -21 -32 -23 -113 -23 -123 0 -129 7 -129 151 l0
104 35 0 34 0 3 -97z m578 77 c31 -31 28 -113 -5 -145 -22 -22 -32 -25 -105
-25 l-80 0 0 -35 c0 -32 -2 -35 -30 -35 l-30 0 0 130 0 130 115 0 c102 0 117
-2 135 -20z m754 -2 c23 -33 21 -109 -5 -142 l-20 -26 20 -29 c28 -39 27 -41
-14 -41 -29 0 -39 6 -57 35 -21 32 -27 35 -70 35 l-48 0 0 -35 c0 -33 -2 -35
-35 -35 l-35 0 0 130 0 130 124 0 c118 0 126 -1 140 -22z m216 -108 l0 -130
-35 0 -35 0 0 130 0 130 35 0 35 0 0 -130z m282 55 l63 -76 3 76 3 75 34 0 35
0 0 -130 0 -130 -29 0 c-24 0 -41 15 -102 87 l-74 86 -3 -86 -3 -87 -29 0 -30
0 0 130 0 130 35 0 c31 0 41 -8 97 -75z m498 45 c0 -29 -1 -30 -50 -30 l-50 0
0 -100 0 -100 -35 0 -35 0 0 100 0 100 -50 0 c-49 0 -50 1 -50 30 l0 30 135 0
135 0 0 -30z m610 -47 l65 -77 3 77 3 77 29 0 30 0 0 -130 0 -130 -28 0 c-23
0 -40 15 -98 85 l-69 85 -5 -83 -5 -82 -32 -3 -33 -3 0 130 0 131 38 0 c35 0
43 -6 102 -77z m525 52 c15 -14 26 -37 27 -57 3 -55 -4 -122 -13 -140 -14 -27
-76 -40 -174 -36 l-90 3 -3 128 -3 127 116 0 c110 0 117 -1 140 -25z m655 -51
l65 -76 3 76 3 76 29 0 30 0 0 -130 0 -130 -27 0 c-23 0 -41 16 -98 85 l-70
84 -5 -82 -5 -82 -32 -3 -33 -3 0 130 0 131 38 0 c34 0 43 -6 102 -76z m-3050
-347 c44 -15 60 -47 60 -119 0 -116 -32 -141 -183 -136 l-92 3 -3 119 c-1 66
0 126 2 133 7 17 166 17 216 0z m408 -14 c-3 -28 -4 -28 -85 -31 -81 -3 -83
-3 -83 -27 0 -24 2 -25 75 -25 73 0 75 -1 75 -25 0 -24 -2 -25 -75 -25 -73 0
-75 -1 -75 -25 0 -25 1 -25 86 -25 l85 0 -3 -27 -3 -28 -117 -3 -118 -3 0 136
0 135 121 0 120 0 -3 -27z m551 17 c19 -5 38 -15 43 -22 13 -21 9 -60 -9 -80
-15 -17 -15 -19 2 -32 25 -18 25 -80 2 -104 -14 -14 -40 -18 -127 -20 l-110
-4 0 136 0 136 83 0 c45 0 98 -4 116 -10z m372 -120 c32 -69 58 -128 58 -132
1 -5 -15 -8 -34 -8 -24 0 -37 6 -45 20 -9 16 -21 20 -69 20 -48 0 -61 -4 -72
-21 -11 -15 -23 -20 -47 -17 l-32 3 62 133 c60 130 62 133 91 130 28 -3 34
-12 88 -128z m296 49 l68 -81 5 78 5 79 30 0 30 0 0 -130 0 -130 -27 -3 c-22
-3 -37 10 -100 82 l-73 86 -5 -83 -5 -82 -30 0 -30 0 -3 119 c-1 66 0 126 2
133 3 7 19 13 35 13 26 0 41 -13 98 -81z m492 72 c8 -5 11 -16 6 -30 -6 -19
-11 -20 -58 -15 -29 3 -64 1 -79 -5 -27 -10 -28 -14 -28 -75 0 -79 11 -89 103
-85 43 2 62 -1 61 -9 -1 -7 -2 -19 -2 -27 -2 -12 -19 -15 -88 -15 -81 0 -87 1
-115 29 -27 27 -29 35 -29 103 0 79 14 112 54 128 28 11 157 12 175 1z m358
-23 c54 -54 38 -192 -27 -226 -16 -8 -52 -12 -97 -10 -64 3 -76 7 -100 30 -37
38 -45 136 -13 186 27 44 51 52 137 49 64 -2 76 -6 100 -29z m368 20 c4 -4 4
-16 0 -27 -5 -17 -16 -21 -78 -23 -56 -2 -72 -6 -72 -18 0 -10 18 -19 59 -27
82 -16 103 -27 109 -59 14 -77 -34 -108 -158 -102 -69 3 -70 3 -73 32 l-4 29
72 -7 c48 -5 76 -4 85 4 23 19 6 38 -38 45 -68 10 -106 25 -117 45 -23 44 -1
104 43 113 31 7 164 3 172 -5z m-2968 -445 c-9 -9 -19 -14 -22 -11 -3 3 2 13
11 22 9 9 19 14 22 11 3 -3 -2 -13 -11 -22z m-659 -34 c36 -12 45 -38 25 -76
-13 -25 -13 -31 2 -55 23 -40 -4 -38 -30 2 -28 42 -65 42 -65 0 0 -16 -4 -30
-10 -30 -11 0 -14 152 -3 163 10 10 46 8 81 -4z m260 2 c2 -1 0 -5 -3 -11 -3
-5 -24 -10 -46 -10 -36 0 -40 -2 -37 -22 2 -16 10 -23 25 -23 12 0 25 -3 29
-7 4 -5 -7 -8 -24 -8 -29 0 -32 -3 -32 -30 0 -29 2 -30 46 -30 27 0 43 -4 39
-10 -3 -5 -30 -10 -60 -10 l-53 0 1 78 c0 42 6 80 11 85 8 6 71 4 104 -2z
m220 -19 c31 -40 1 -82 -59 -82 -37 0 -39 -2 -39 -30 0 -16 -4 -30 -10 -30
-12 0 -14 153 -3 164 13 12 97 -4 111 -22z m124 -52 l3 -65 40 0 40 0 3 68 c2
53 6 67 19 67 13 0 15 -11 11 -66 -5 -75 -20 -94 -75 -94 -52 0 -73 29 -73 98
0 102 27 94 32 -8z m340 64 c5 -3 8 -22 7 -42 -1 -20 1 -45 5 -54 5 -11 0 -24
-14 -38 -17 -17 -31 -20 -67 -18 l-47 3 -1 75 c-1 44 3 78 9 82 11 7 94 1 108
-8z m348 -69 c0 -61 -3 -85 -12 -85 -14 0 -24 117 -13 151 14 43 25 14 25 -66z
m218 79 c33 -9 27 -24 -7 -18 -47 10 -71 -10 -71 -59 0 -53 13 -67 62 -67 21
0 38 -4 38 -10 0 -12 -79 -13 -98 -2 -21 14 -33 72 -22 113 12 44 43 57 98 43z
m242 -80 c32 -72 33 -112 3 -67 -21 31 -89 33 -98 3 -6 -19 -25 -28 -25 -12 0
4 14 41 31 84 20 48 36 75 44 71 7 -2 28 -38 45 -79z m398 58 c6 -9 12 -35 12
-59 0 -61 -26 -85 -87 -81 l-47 3 -4 74 c-3 54 0 76 10 82 19 13 101 -1 116
-19z m236 7 c21 -17 26 -29 26 -65 0 -54 -26 -84 -73 -84 -54 0 -77 23 -77 79
0 51 14 77 45 84 39 9 53 7 79 -14z m182 -44 c16 -35 32 -65 35 -65 3 0 18 29
34 65 39 92 55 87 55 -20 0 -65 -3 -85 -13 -85 -10 0 -14 14 -13 50 1 28 -1
50 -5 50 -3 0 -16 -22 -27 -50 -12 -27 -26 -50 -32 -50 -6 0 -22 24 -35 53
-25 54 -29 50 -27 -25 0 -18 -5 -28 -14 -28 -11 0 -14 17 -14 78 0 115 14 122
56 27z m262 -33 c-1 -52 -5 -72 -15 -72 -10 0 -13 20 -13 78 0 43 3 82 7 85
14 15 23 -21 21 -91z m242 13 c0 -47 -4 -85 -9 -85 -6 0 -29 28 -53 62 l-43
61 -3 -62 c-4 -92 -26 -75 -30 22 -3 69 -2 77 15 77 11 0 34 -24 58 -58 l40
-57 3 50 c1 28 5 56 7 63 10 29 15 7 15 -73z m140 0 c0 -50 -4 -85 -10 -85 -6
0 -10 35 -10 85 0 50 4 85 10 85 6 0 10 -35 10 -85z m214 79 c27 -10 18 -19
-21 -19 -45 0 -63 -27 -54 -83 6 -35 8 -37 49 -40 53 -4 55 -22 2 -22 -55 0
-80 26 -80 83 0 44 13 70 40 80 21 8 46 8 64 1z m235 -81 c32 -74 33 -110 4
-66 -21 31 -89 33 -98 3 -3 -11 -12 -20 -20 -20 -9 0 -2 25 23 84 22 52 40 82
48 79 6 -2 26 -38 43 -80z m223 -3 l27 -35 1 63 c0 39 4 61 10 57 13 -8 13
-165 0 -165 -5 0 -28 25 -51 55 -23 30 -45 53 -49 50 -4 -3 -6 -27 -4 -55 2
-38 -1 -50 -12 -50 -11 0 -14 17 -14 78 0 43 3 82 7 86 8 7 33 -18 85 -84z
m-2802 10 l0 -70 50 0 c28 0 50 -4 50 -10 0 -6 -27 -10 -60 -10 l-60 0 0 80
c0 47 4 80 10 80 6 0 10 -30 10 -70z m3067 13 c42 -96 44 -103 28 -103 -7 0
-17 9 -20 20 -9 30 -77 28 -98 -2 -27 -42 -25 -14 6 65 17 45 36 77 44 77 8 0
26 -26 40 -57z"/>
<path d="M3730 2271 l0 -91 193 0 c225 0 227 1 227 86 0 89 0 89 -224 92
l-196 3 0 -90z"/>
<path d="M3730 1876 l0 -106 200 0 c200 0 201 0 225 25 35 34 35 112 1 152
l-24 28 -201 3 -201 4 0 -106z"/>
<path d="M5577 1065 c-9 -20 -17 -38 -17 -40 0 -3 18 -5 39 -5 l40 0 -17 40
c-9 22 -20 40 -23 40 -3 0 -13 -16 -22 -35z"/>
<path d="M900 1095 l0 -45 58 0 c72 0 84 8 80 51 l-3 34 -67 3 -68 3 0 -46z"/>
<path d="M1650 1100 l0 -40 71 0 70 0 -3 38 -3 37 -67 3 -68 3 0 -41z"/>
<path d="M3790 1060 l0 -80 51 0 c77 0 89 10 89 78 0 32 -5 63 -12 70 -7 7
-38 12 -70 12 l-58 0 0 -80z"/>
<path d="M1430 640 l0 -80 48 0 c68 0 92 20 92 76 0 73 -11 84 -80 84 l-60 0
0 -80z"/>
<path d="M2400 695 c0 -25 2 -26 58 -23 50 3 57 6 60 26 3 21 0 22 -57 22 -59
0 -61 -1 -61 -25z"/>
<path d="M2402 593 c3 -26 7 -28 54 -31 54 -3 82 14 70 43 -4 11 -21 15 -66
15 -61 0 -61 0 -58 -27z"/>
<path d="M2797 643 c-14 -36 -14 -38 4 -41 10 -2 28 -2 38 0 18 3 18 5 4 41
-8 20 -19 37 -23 37 -4 0 -15 -17 -23 -37z"/>
<path d="M3892 708 c-7 -7 -12 -36 -12 -64 0 -43 4 -56 22 -68 28 -20 58 -20
86 0 18 12 22 25 22 68 0 28 -5 57 -12 64 -16 16 -90 16 -106 0z"/>
<path d="M743 273 c-7 -3 -13 -18 -13 -34 0 -29 2 -30 38 -27 32 3 37 6 37 27
0 18 -7 26 -25 31 -14 4 -31 5 -37 3z"/>
<path d="M1203 272 c-18 -3 -23 -10 -23 -33 0 -29 2 -30 38 -27 32 3 37 7 40
29 3 28 -13 38 -55 31z"/>
<path d="M1650 245 c0 -21 5 -25 29 -25 31 0 57 22 46 40 -3 5 -22 10 -41 10
-30 0 -34 -3 -34 -25z"/>
<path d="M1650 179 c0 -29 2 -30 37 -27 65 5 56 57 -9 58 -25 0 -28 -4 -28
-31z"/>
<path d="M2488 226 c-15 -29 -15 -35 -2 -40 25 -10 45 5 38 28 -14 45 -20 47
-36 12z"/>
<path d="M2868 272 c-15 -3 -18 -14 -18 -63 0 -58 1 -59 28 -59 38 0 51 11 55
46 7 57 -18 86 -65 76z"/>
<path d="M3096 264 c-18 -18 -21 -66 -6 -95 8 -13 21 -19 46 -19 28 0 36 5 44
26 15 38 12 62 -10 84 -24 24 -53 26 -74 4z"/>
<path d="M4398 230 c-14 -33 -14 -35 6 -41 31 -9 38 4 22 42 l-14 34 -14 -35z"/>
<path d="M4894 232 c-14 -48 -13 -50 35 -43 11 1 -6 58 -19 66 -4 3 -11 -7
-16 -23z"/>
</g>
</svg>
